/* XPM */
static char * banner_xpm[] = {
"60 17 16 1",
" 	c #7A83A0",
".	c #4DA6FF",
"+	c #C2D6FC",
"@	c #DBDFE0",
"#	c #E6DFD4",
"$	c #90828C",
"%	c #DDDBD2",
"&	c #C5D1F0",
"*	c #7E7989",
"=	c #E3E8D4",
"-	c #CBDFF2",
";	c #8A948C",
">	c #DEE4D3",
",	c #808D8B",
"'	c #C5DBF1",
")	c #8FDE5D",
"                                                          ..",
"++++++++++++++++++++++++++++++++++++++++++++++++++++++++++ .",
"@@@@@@@@@@@@@@@@@@@@@@@@@@@@@@@@@@@@@@@@@@@@@@@@@@@@@@@@@@+ ",
"@@@@@@@@@@@@@@@@@@@@@@@@@@@@@@@@@@@@@@@@@@@@@@@@@@@@@@@@@@+ ",
"@@@@@@@@@@@@@@@@@@@@@@@@@@@@@@@@@@@@@@@@@@@@@@@@@@@@@@@@@@+ ",
"@@@@@@@@@@@@@@@@@@@@@@@@@@@@@@@@@@@@@@@@@@@@@@@@@@@@@@@@@@+ ",
"@@@@@@@@@@@@@@@@@@@@@@@@@@@@@@@@@@@@@@@@@@@@@@@@@@@@@@@@@@+ ",
"@@@@@@@@@@@@@@@@@@@@@@@@@@@@@@@@@@@@@@@@@@@@@@@@@@@@@@@@@@+ ",
"@@@@@@@@@@@@@@@@@@@@@@@@@@@@@@@@@@@@@@@@@@@@@@@@@@@@@@@@@@+ ",
"@@@@@@@@@@@@@@@@@@@@@@@@@@@@@@@@@@@@@@@@@@@@@@@@@@@@@@@@@@+ ",
"@@@@@@@@@@@@@@############################################+$",
"@@@@@@@@@@@@##%%%%%%%%%%%%%%%%%%%%%%%%%%%%%%%%%%%%%%%%%%%%&*",
"@@@@@@@@@@@#%%============================================-;",
"@@@@@@@@@@@#%=>>>>>>>>>>>>>>>>>>>>>>>>>>>>>>>>>>>>>>>>>>>>-,",
"@@@@@@@@@@@%=>>>>>>>>>>>>>>>>>>>>>>>>>>>>>>>>>>>>>>>>>>>>>-,",
"+++++++++++&-''''''''''''''''''''''''''''''''''''''''-----,)",
"          $*;,,,,,,,,,,,$$$$$$$$$$$$$$$,,,,,,,,,,,,,,,,,,,))"};
