/* XPM */
static char * tree_xpm[] = {
"32 32 11 1",
" 	c #8FDE5D",
".	c #322947",
"+	c #CFFF70",
"@	c #3D6E70",
"#	c #3CA370",
"$	c #323E4F",
"%	c #964253",
"&	c #BA6156",
"*	c #537A3A",
"=	c #547B3B",
"-	c #8EDD5D",
"                                ",
"            .........           ",
"         ...+++++++++...        ",
"        .+++++++++++++++.       ",
"       .+++++++++++++++++.      ",
"      .+++++++++++++++++++.     ",
"      .+++++++++++++++++++.     ",
"     ..+++++++++++++++++++..    ",
"     .@+++++++++++++++++++ .    ",
"     .@+++++++++++++++++++ .    ",
"     .@@+++++++++++++++++  .    ",
"     .@@@@+++++++++++++##  .    ",
"     .@@##@@@+++++++#####  .    ",
"     .@@#################  .    ",
"     .@@#################  .    ",
"     .@@################   .    ",
"      .@@###############  $     ",
"      .@@@##############  $     ",
"       .@@@@###########  .      ",
"        .@@@@@@######   .       ",
"         ...@@@@@@@  ...        ",
"            .........           ",
"              .%&&.             ",
"              .%&&.             ",
"           ***.%&&.***          ",
"         ****.%%&&&.****        ",
"        ****.%%%&%%%.****       ",
"       *****...%%%...*****      ",
"        =******.%.*******       ",
"        -*******.*******        ",
"            *********           ",
"                                "};
