/* XPM */
static char *result[] = {
/* columns rows colors chars-per-pixel */
"32 32 6 1 ",
"  c #2B5224",
". c #322947",
"X c #458239",
"o c #3CA370",
"O c #8FDE5D",
"+ c #CFFF70",
/* pixels */
"OOOOOOOOOOOOOOOOOOOOOOOOOOOOOOOO",
"OOOOOOOOOOOOOOOOOOOOOOOOOOOOOOOO",
"OOOOOOOOOOOOOOOOOOOOOOOOOOOOOOOO",
"OOOOOOOOOO............OOOOOOOOOO",
"OOOOOOOOOO............OOOOOOOOOO",
"OOOOOOO...oooooooooooo...OOOOOOO",
"OOOOOOO...oooooooooooo...OOOOOOO",
"OOOOO..ooo++++++++++++ooo..OOOOO",
"OOOOO..ooo++++++++++++ooo..OOOOO",
"OOO..ooo+++++++++++++++oooo..OOO",
"OOO..ooo+++++++++++++++oooo..OOO",
"OOO..ooo+++++++++++++++oooo..OOO",
"O..XXooooo++++++++++++oooooXX..O",
"O..XXooooo++++++++++++oooooXX..O",
"O..XXooooooooooooooooooooooXX..O",
"O..XXooooooooooooooooooooooXX..O",
"O..XXooooooooooooooooooooooXX..O",
"O..XXooooooooooooooooooooooXX..O",
"O..XXXXooooooooooooooooooXXXX..O",
"O..XXXXooooooooooooooooooXXXX..O",
"O..XXXXXoooooooooooooooXXXXXX..O",
"O..XXXXXoooooooooooooooXXXXXX..O",
"O..  XXXXXXXooooooooXXXXXXX  ..O",
"O..  XXXXXXXooooooooXXXXXXX  ..O",
"OOO..  XXXXXXXXXXXXXXXXXX  ..OOO",
"OOO..     XXXXXXXXXXXX     ..OOO",
"OOO..     XXXXXXXXXXXX     ..OOO",
"OOOOO.....            .....OOOOO",
"OOOOO.....            .....OOOOO",
"OOOOOOOOOO............OOOOOOOOOO",
"OOOOOOOOOO............OOOOOOOOOO",
"OOOOOOOOOOOOOOOOOOOOOOOOOOOOOOOO"
};
