/* XPM */
static char *result[] = {
/* columns rows colors chars-per-pixel */
"32 32 7 1 ",
"  c #2B5224",
". c #322947",
"X c #3D6E70",
"o c #458239",
"O c #3CA370",
"+ c #8FDE5D",
"@ c #CFFF70",
/* pixels */
"++++++++++++++++++++++++++++++++",
"++++++++++++++++++++++++++++++++",
"++++++++++++++++++++++++++++++++",
"++++++++++++++++++++++++++++++++",
"++++++++........++++++++++++++++",
"++++++++........++++++++++++++++",
"+++++++.++@@@@@@..OOOO...+++++++",
"+++++++.++@@@@@@..OOOO...+++++++",
"+++++..XXX  ++@@XX@@@@@++..+++++",
"+++++..XXX  ++@@XX@@@@@++..+++++",
"+++..++@@@OO      OOOO+++  ..+++",
"+..+++++@@XX++@@@@XXOOO    ..+++",
"+..+++++@@XX++@@@@XXOOO    ..+++",
"+..OO++XXX++++++++  XXXOOOOoo..+",
"+..OO++XXX++++++++  XXXOOOOoo..+",
"+XX..XXOXX@@++++  OOOOOXXXXoo..+",
"+XX..XXOXX@@++++  OOOOOXXXXoo..+",
"+..@@@@OOOXX@@  OOXXOO@@@@@  ..+",
"+..@@@@OOOXX@@  OOXXOO@@@@@  ..+",
"+..++++@@@OOXX@@@@XXXX@++++..+++",
"+..++++@@@OOXX@@@@XXXX@++++..+++",
"+..++++O..  ++++@@@@XX.OO++..+++",
"+..++++O..  ++++@@@@XX.OO++..+++",
"+..OOOO.XX  OO++++..OOO..OO..+++",
"+++....OXX  OO++++..OOO....+++++",
"+++....OXX  OO++++..OOO....+++++",
"+++++..O..  OO++..oo..O..+++++++",
"+++++..O..  OO++..oo..O..+++++++",
"+++++++................+++++++++",
"+++++++................+++++++++",
"++++++++++++++++++++++++++++++++",
"++++++++++++++++++++++++++++++++"
};
