/* XPM */
static char *result[] = {
/* columns rows colors chars-per-pixel */
"32 32 6 1 ",
"  c #2B5224",
". c #322947",
"X c #458239",
"o c #3CA370",
"O c #8FDE5D",
"+ c #CFFF70",
/* pixels */
"OOOOOOOOOOOOOOOOOOOOOOOOOOOOOOOO",
"OOOOOOOOOOOOOOOOOOOOOOOOOOOOOOOO",
"OOOOOOOOOO............OOOOOOOOOO",
"OOOOOOOOOO............OOOOOOOOOO",
"OOOOOOO...oooooooooooo.....OOOOO",
"OOOOOOO...oooooooooooo.....OOOOO",
"OOOOO..ooo++++++++++++ooo..OOOOO",
"OOOOO..ooo++++++++++++ooo..OOOOO",
"OOO..ooo+++++++++++++++oooo..OOO",
"OOO..ooo+++++++++++++++oooo..OOO",
"OOO..oo+++++++oo+++++++++oo..OOO",
"OOO..oo+++++++oo+++++++++oo..OOO",
"O..XXoo+++oo++++oooo+++++ooXX..O",
"O..XXoo+++oo++++oooo+++++ooXX..O",
"O..XXooooooo++++oooooo+++ooXX..O",
"O..XXooooooo++++oooooo+++ooXX..O",
"O..  oooooooooooooooooooooooo..O",
"O..XXXXXoooooooooooooooXXXXoo..O",
"O..XXXXXoooooooooooooooXXXXoo..O",
"O..XXXXXooooXXXXoooooooXXXX  ..O",
"O..XXXXXooooXXXXoooooooXXXX  ..O",
"O..  XXoooooXXXXooXXXXoooXX..OOO",
"O..  XXoooooXXXXooXXXXoooXX..OOO",
"OOO..  XXXXXooooXXXXXXoXX  ..OOO",
"OOO..  XXXXXooooXXXXXXoXX  ..OOO",
"OOO..   XXXXooooXXXXXXX    ..OOO",
"OOO..   XXXXooooXXXXXXX    ..OOO",
"OOOOO.....          XX.....OOOOO",
"OOOOO.....          XX.....OOOOO",
"OOOOOOOOOO............OOOOOOOOOO",
"OOOOOOOOOO............OOOOOOOOOO",
"OOOOOOOOOOOOOOOOOOOOOOOOOOOOOOOO"
};
