/* XPM */
static char *result[] = {
/* columns rows colors chars-per-pixel */
"32 32 6 1 ",
"  c #2B5224",
". c #322947",
"X c #458239",
"o c #3CA370",
"O c #8FDE5D",
"+ c #CFFF70",
/* pixels */
"OOOOOOOOOOOOOOOOOOOOOOOOOOOOOOOO",
"OOOOOOOOOOOOOOOOOOOOOOOOOOOOOOOO",
"OOOOOOOOOO............OOOOOOOOOO",
"OOOOOOOOOO............OOOOOOOOOO",
"OOOOOOO...oooooooooooo...OOOOOOO",
"OOOOOOO...oooooooooooo...OOOOOOO",
"OOOOO..ooo++++++++++++ooo..OOOOO",
"OOOOO..ooo++++++++++++ooo..OOOOO",
"OOO..ooo+++++++++++++++oooo..OOO",
"OOO..ooo+++++++++++++++oooo..OOO",
"OOO..oo++++++++++++++++++oo..OOO",
"OOO..oo++++++++++++++++++oo..OOO",
"O..XXoo+++oo+++++++++++++ooXX..O",
"O..XXoo+++oo+++++++++++++ooXX..O",
"O..XXooooooo++++oooo+++ooooXX..O",
"O..XXooooooo++++oooo+++ooooXX..O",
"O..  oooooooooooooooooooooooo..O",
"O..XXXXXoooooooooooooooXXXXoo..O",
"O..XXXXXoooooooooooooooXXXXoo..O",
"O..XXXXXooooXXXXoooooooXXXXXX..O",
"O..XXXXXooooXXXXoooooooXXXXXX..O",
"O..  XXoooooXXXXooXXXXoooXXXX..O",
"O..  XXoooooXXXXooXXXXoooXXXX..O",
"OOO..  XXXXXooooXXXXXXoXXXX..OOO",
"OOO..  XXXXXooooXXXXXXoXXXX..OOO",
"OOO..  X  XXooooXXXXXXXXX  ..OOO",
"OOO..  X  XXooooXXXXXXXXX  ..OOO",
"OOOOO.....XXXXXXXX  XX.....OOOOO",
"OOOOO.....XXXXXXXX  XX.....OOOOO",
"OOOOOOOOOO............OOOOOOOOOO",
"OOOOOOOOOO............OOOOOOOOOO",
"OOOOOOOOOOOOOOOOOOOOOOOOOOOOOOOO"
};
