/* XPM */
static char * wall1_xpm[] = {
"32 32 6 1",
" 	c #8FDE5D",
".	c #322947",
"+	c #3CA370",
"@	c #CFFF70",
"#	c #458239",
"$	c #2B5224",
"                                ",
"                                ",
"                                ",
"                                ",
"                                ",
"                                ",
"                                ",
"                                ",
"             ......             ",
"           ..++++++..           ",
"          .++@@@@@@++.          ",
"         .++@@@@@@@@++.         ",
"         .++@@@@@@@@++.         ",
"        .#+++@@@@@@+++#.        ",
"        .#++++++++++++#.        ",
"        .#++++++++++++#.        ",
"        .##++++++++++##.        ",
"        .###++++++++###.        ",
"        .$####++++####$.        ",
"         .$##########$.         ",
"         .$$$######$$$.         ",
"          ...$$$$$$...          ",
"             ......             ",
"                                ",
"                                ",
"                                ",
"                                ",
"                                ",
"                                ",
"                                ",
"                                ",
"                                "};
