/* XPM */
static char *dino171676108285[] = {
/* columns rows colors chars-per-pixel */
"21 21 9 1 ",
"  c #382121",
". c #537A3A",
"X c #A04345",
"o c #BC4D4F",
"O c #4B9A27",
"+ c #8FDE5D",
"@ c #D8B78F",
"# c #FFD7A8",
"$ c white",
/* pixels */
"+++++++++++++++++++++",
"+++++++++         +++",
"++++++   XXooooooo ++",
"+++++  X   XooXXXo ++",
"++++ O  $$$ o ooo  ++",
"++++ O  $$$ oooooo ++",
"++++    $$$ oooooo ++",
"+++++ O  $ ooooooo ++",
"+++++ O  $ Xoooo   ++",
"+++++   X XXXo  +++++",
"++++++ o@#### +++++++",
"+++++++ X@#### ++++++",
"+++++  oX@####  +++++",
"+++++ oXXXo@@oo +++++",
"+++++   Xoo oXX +++++",
"+++++++ Xo     ++++++",
"++++... X ........+++",
"+++....  ..........++",
"++++..............+++",
"+++++++........++++++",
"+++++++++++++++++++++"
};
