/* XPM */
static char * dino29_xpm[] = {
"17 21 9 1",
" 	c #8FDE5D",
".	c #382121",
"+	c #BC4D4F",
"@	c #A04345",
"#	c #FFFFFF",
"$	c #4B9A27",
"%	c #FFD7A8",
"&	c #D8B78F",
"*	c #537A3A",
"  .........      ",
" .+++++++@@...   ",
" .+@@@++@@@@@..  ",
" ..+++.+@@.#@.$. ",
" .++++++@#.#@.$. ",
" .++++++@#.#@... ",
" .+++++++@@@.$.  ",
" ...++++@@@@.$.  ",
"    ..+@@@@@...  ",
"      .++++@@..  ",
"      .%%%%&@.   ",
"      .%%%%&@.   ",
"     ..%%%%&@+.. ",
"     .++&&+@@@+. ",
"     .@@++++@... ",
"     *.....+@.   ",
"  *********.@.** ",
" ***********..***",
"  ************** ",
"     ********    ",
"                 "};
