/* XPM */
static char *dino161676108285[] = {
/* columns rows colors chars-per-pixel */
"21 21 3 1 ",
"  c #537A3A",
". c #8FDE5D",
"X c white",
/* pixels */
".....................",
"........XXXXXXXXX....",
".....XXXXXXXXXXXXX...",
"....XXXXXXXXXXXXXX...",
"...XXXXXXXXXXXXXXX...",
"...XXXXXXXXXXXXXXX...",
"...XXXXXXXXXXXXXXX...",
"....XXXXXXXXXXXXXX...",
"....XXXXXXXXXXXXXX...",
"....XXXXXXXXXXX......",
".....XXXXXXXX........",
"......XXXXXXXX.......",
"....XXXXXXXXXXX......",
"....XXXXXXXXXXX......",
"....XXXXXXXXXXX......",
"......XXXXXXXX ......",
"....  XXX         ...",
"...   XX           ..",
"....              ...",
".......        ......",
"....................."
};
