/* XPM */
static char * dino32_xpm[] = {
"17 21 3 1",
" 	c #8FDE5D",
".	c #FFFFFF",
"+	c #537A3A",
"                 ",
"   .........     ",
"  .............  ",
"  .............. ",
"  ...............",
"  ...............",
"  ...............",
"  .............. ",
"  .............. ",
"     ........... ",
"       ........  ",
"      ........   ",
"     ........... ",
"     ........... ",
"     ........... ",
"     +........   ",
"  +++++++++...++ ",
" +++++++++++..+++",
"  ++++++++++++++ ",
"     ++++++++    ",
"                 "};
