/* XPM */
static char *ino__14_1675937206[] = {
/* columns rows colors chars-per-pixel */
"24 24 9 1 ",
"  c #382121",
". c #537A3A",
"X c #A04345",
"o c #BC4D4F",
"O c #4B9A27",
"+ c #8FDE5D",
"@ c #D8B78F",
"# c #FFD7A8",
"$ c white",
/* pixels */
"++++++++++++++++++++++++",
"++++++++++++++++++++++++",
"++++++++++++++++++++++++",
"++++++++++++++++++++++++",
"+++++            +++++++",
"++++ oooooooXXXX  ++++++",
"++++ oXXXooXXXXX O +++++",
"++++  ooo oX$ $X O +++++",
"++++ ooooooX$ $X   +++++",
"++++ ooooooX$ $ O ++++++",
"++++ ooooooXXXX O ++++++",
"++++     oXXXXX   ++++++",
"+++++++++ ooooXX  ++++++",
"+++++++++ ####@X +++++++",
"+++++++++ ####@X   +++++",
"+++++++++ ####@Xoo +++++",
"+++++++++ o@@oXXX  +++++",
"+++++++++ oooooX  ++++++",
"++++++++. oX  oX +++++++",
"+++++..... X . X ..+++++",
"++++.......  ..  ...++++",
"+++++..............+++++",
"++++++++........++++++++",
"++++++++++++++++++++++++"
};
