/* XPM */
static char *ino__17_1675937207[] = {
/* columns rows colors chars-per-pixel */
"24 24 9 1 ",
"  c #382121",
". c #537A3A",
"X c #A04345",
"o c #BC4D4F",
"O c #4B9A27",
"+ c #8FDE5D",
"@ c #D8B78F",
"# c #FFD7A8",
"$ c white",
/* pixels */
"++++++++++++++++++++++++",
"++++++++++++++++++++++++",
"++++++++++++++++++++++++",
"++++++++++++++++++++++++",
"+++++         ++++++++++",
"++++ oooooooXX   +++++++",
"++++ oXXXooX   X  ++++++",
"++++  ooo o $$$  O +++++",
"++++ oooooo $$$  O +++++",
"++++ oooooo $$$    +++++",
"++++ ooooooo $  O ++++++",
"++++   ooooX $  O ++++++",
"+++++++  oXXX X   ++++++",
"+++++++++ ####@o +++++++",
"++++++++ ####@X ++++++++",
"+++++++  ####@Xo  ++++++",
"+++++++ oo@@oXXXo ++++++",
"+++++++ XXo ooX   ++++++",
"++++++++     oX ++++++++",
"+++++........ X ...+++++",
"++++..........  ....++++",
"+++++..............+++++",
"++++++++........++++++++",
"++++++++++++++++++++++++"
};
