/* XPM */
static char *dino11675937198[] = {
/* columns rows colors chars-per-pixel */
"24 24 9 1 ",
"  c #382121",
". c #537A3A",
"X c #A04345",
"o c #BC4D4F",
"O c #4B9A27",
"+ c #8FDE5D",
"@ c #D8B78F",
"# c #FFD7A8",
"$ c white",
/* pixels */
"++++++++++++++++++++++++",
"++++++++++++++++++++++++",
"++++++++++++++++++++++++",
"++++++++++++++++++++++++",
"+++++++            +++++",
"++++++  XXXXooooooo ++++",
"+++++ O XXXXXooXXXo ++++",
"+++++ O X$ $Xo ooo  ++++",
"+++++   X$ $Xoooooo ++++",
"++++++ O $ $Xoooooo ++++",
"++++++ O XXXXoooooo ++++",
"++++++   XXXXXo     ++++",
"++++++  XXoooo +++++++++",
"+++++++ X@#### +++++++++",
"+++++   X@#### +++++++++",
"+++++ ooX@#### +++++++++",
"+++++  XXXo@@o +++++++++",
"++++++  Xooooo +++++++++",
"+++++++ Xo  Xo .++++++++",
"+++++.. X . X .....+++++",
"++++...  ..  .......++++",
"+++++..............+++++",
"++++++++........++++++++",
"++++++++++++++++++++++++"
};
